<svg version="1.0" xmlns="http://www.w3.org/2000/svg" width="1000" height="811" viewBox="0 0 1000.000000 811.000000" preserveAspectRatio="xMidYMid meet">

        <g transform="translate(0.000000,811.000000) scale(0.100000,-0.100000)" fill="#000000" stroke="none">
                <path d="M7024 7606 c0 -205 -10 -271 -59 -401 -27 -72 -94 -190 -103 -181 -2
3 -15 31 -28 61 -88 218 -283 393 -505 455 -63 17 -129 26 -129 18 0 -2 11
-35 24 -73 34 -102 50 -211 44 -316 -3 -49 -9 -93 -13 -97 -3 -4 -27 17 -52
46 -52 60 -140 126 -228 170 -253 126 -591 110 -814 -40 -48 -32 -121 -98
-121 -108 0 -3 24 -12 53 -19 123 -31 283 -133 371 -236 26 -30 46 -55 43 -55
-2 0 -35 14 -72 31 -119 54 -205 72 -350 72 -148 1 -237 -19 -360 -78 -68 -33
-185 -119 -192 -141 -2 -6 11 -17 29 -24 68 -27 228 -103 228 -109 0 -4 -33
-15 -72 -25 -121 -30 -385 -120 -517 -176 -322 -134 -619 -308 -901 -526 -139
-107 -418 -383 -524 -515 -177 -223 -361 -545 -445 -779 -19 -52 -36 -97 -37
-99 -2 -2 -259 188 -571 421 -572 427 -747 556 -768 564 -13 5 -195 -361 -195
-392 0 -12 23 -58 50 -104 28 -45 49 -83 48 -84 -2 -1 -52 -15 -113 -32 -127
-34 -116 -22 -205 -224 l-48 -107 222 -58 c686 -179 1008 -268 999 -276 -9 -7
-68 -15 -583 -85 -305 -41 -621 -87 -677 -99 -21 -5 -20 -9 37 -178 83 -247
230 -650 240 -661 11 -11 206 67 680 269 195 84 374 159 398 168 l43 17 -12
-22 c-20 -38 -132 -206 -222 -333 -47 -66 -82 -121 -78 -123 8 -3 130 61 382
201 217 120 319 169 323 155 110 -414 252 -690 479 -925 l69 -72 -27 -67 c-55
-138 -55 -263 2 -487 22 -88 23 -105 14 -168 -30 -191 78 -419 268 -564 l49
-37 7 -76 c30 -321 224 -610 500 -744 l80 -39 7 105 c7 116 43 276 91 400 38
102 146 312 221 434 l58 93 56 -50 c111 -96 129 -121 137 -181 42 -343 234
-631 506 -760 35 -16 70 -30 77 -30 8 0 12 20 12 69 0 143 41 313 122 501 70
165 129 267 402 698 l78 122 126 0 c136 0 355 23 627 65 864 133 1589 542
1906 1078 l34 57 717 0 718 0 0 447 0 446 -412 -4 c-227 -2 -492 -2 -588 -1
l-174 2 51 53 c205 211 296 500 265 840 -41 447 -336 778 -672 753 -41 -3 -84
-7 -95 -10 -16 -4 -31 11 -77 82 -31 48 -93 132 -139 186 -45 55 -78 101 -73
103 5 2 47 24 93 50 209 119 372 337 438 588 22 86 26 121 26 250 1 173 -17
262 -83 402 -37 78 -116 203 -129 203 -3 0 -30 -48 -60 -106 -55 -109 -141
-232 -206 -294 -43 -42 -50 -36 -58 53 -8 80 -41 203 -78 292 -37 89 -129 233
-197 307 -90 97 -244 202 -362 246 l-25 10 -1 -192z m281 -167 c116 -109 191
-244 231 -414 25 -108 15 -324 -19 -430 -15 -44 -33 -89 -41 -100 -14 -18 -15
-10 -16 90 -1 284 -67 577 -183 808 -30 59 -50 107 -46 107 5 0 38 -28 74 -61z
m-849 -108 c209 -136 335 -391 333 -673 -1 -152 -9 -158 -47 -31 -71 233 -170
450 -284 623 -35 52 -66 101 -71 108 -14 22 8 13 69 -27z m-759 -106 c212 -41
423 -208 532 -424 l23 -43 -69 59 c-229 197 -408 280 -793 370 -25 6 -25 6 8
19 77 33 188 40 299 19z m2398 -336 c8 -35 15 -110 15 -165 0 -264 -134 -527
-346 -680 -34 -24 -65 -44 -68 -44 -4 0 11 21 33 48 96 114 184 292 244 492
32 105 87 372 87 423 1 35 17 -1 35 -74z m-2102 -504 c147 -20 367 -74 512
-127 253 -91 548 -259 740 -420 223 -187 489 -508 470 -569 -4 -11 -33 -49
-64 -84 -131 -144 -213 -477 -183 -744 27 -243 112 -438 260 -593 l55 -58
-351 0 -352 0 0 -450 0 -450 375 0 c206 0 375 -3 375 -7 0 -16 -89 -119 -183
-210 -197 -192 -412 -328 -705 -448 -628 -255 -1533 -348 -2337 -239 -66 9
-121 17 -122 18 -2 2 25 52 58 112 66 118 114 217 161 334 16 41 34 80 39 86
11 14 64 218 84 330 34 189 30 473 -10 595 l-14 44 7 -40 c13 -86 5 -298 -17
-402 -68 -328 -230 -611 -636 -1113 -436 -540 -590 -798 -660 -1105 l-22 -100
-22 70 c-51 164 -65 366 -35 513 36 176 172 455 317 647 87 115 213 259 362
415 71 74 145 153 165 174 l35 39 -90 -48 c-575 -308 -896 -639 -994 -1028
l-18 -70 -31 42 c-73 100 -99 239 -65 346 49 154 250 372 581 630 111 87 201
160 199 162 -2 1 -57 -17 -123 -41 -333 -123 -562 -256 -742 -434 -46 -46 -87
-81 -90 -77 -10 10 17 118 45 174 30 62 143 185 248 271 39 31 147 112 240
180 353 256 491 393 585 580 61 122 57 124 -52 16 -129 -128 -228 -193 -573
-381 -297 -162 -353 -194 -406 -236 l-37 -29 -71 75 c-202 213 -327 450 -397
755 -85 373 -37 773 143 1175 47 107 160 307 192 342 9 10 39 47 66 83 146
194 389 441 576 586 543 424 1188 671 1894 728 109 9 505 -3 618 -19z m2235
-1151 c245 -118 387 -532 307 -895 -32 -145 -136 -325 -233 -401 -150 -120
-313 -101 -463 52 -186 189 -251 520 -168 848 47 186 190 364 336 418 57 21
151 12 221 -22z m1122 -1782 c0 -55 -3 -147 -7 -205 l-6 -107 -1007 0 -1007 0
-6 107 c-4 58 -7 150 -7 205 l0 98 1020 0 1020 0 0 -98z m-4905 -1694 c3 -2
-10 -42 -29 -89 -19 -46 -42 -110 -52 -141 -17 -56 -18 -57 -37 -40 -65 58
-76 178 -23 247 28 36 30 37 82 33 30 -3 56 -7 59 -10z m495 -53 c69 -9 135
-13 148 -10 12 3 22 3 22 1 0 -2 -30 -44 -67 -93 -217 -287 -348 -541 -396
-773 l-14 -65 -13 30 c-90 214 -76 489 40 793 37 97 56 113 150 131 3 1 62 -6
130 -14z" />
                <path d="M6376 5514 c-211 -51 -417 -280 -510 -565 -60 -187 -71 -446 -27
-641 91 -401 369 -689 666 -688 156 1 259 36 386 133 159 121 279 329 330 572
24 113 26 333 4 457 -31 177 -111 374 -198 487 -151 196 -426 300 -651 245z
m268 -195 c209 -78 372 -336 407 -643 22 -198 -16 -386 -114 -565 -88 -160
-189 -250 -321 -286 -138 -38 -255 4 -388 137 -63 63 -86 96 -128 180 -94 191
-115 342 -81 578 25 175 33 205 77 294 69 137 193 261 309 306 68 26 168 26
239 -1z" />
                <path d="M6663 4860 c-42 -25 -87 -87 -114 -159 -32 -80 -32 -232 0 -314 32
-83 91 -153 141 -168 48 -15 104 -1 148 35 39 34 82 116 89 174 l5 48 -86 19
c-48 9 -89 22 -92 26 -3 5 29 50 70 99 42 50 76 100 76 111 0 48 -50 108 -112
134 -50 20 -86 19 -125 -5z" />
                <path d="M5665 3788 c-33 -27 -109 -85 -170 -128 -60 -43 -119 -85 -129 -93
-18 -13 -17 -17 34 -91 29 -42 57 -79 61 -82 10 -6 42 16 256 168 l153 109
-53 71 c-78 105 -80 106 -152 46z" />
                <path d="M5893 3447 c-108 -199 -145 -279 -136 -287 15 -15 151 -80 167 -80 9
0 23 17 31 37 9 21 53 105 99 188 46 82 87 159 90 170 5 18 -6 27 -79 63 -47
23 -89 42 -93 42 -4 0 -39 -60 -79 -133z" />
                <path d="M8220 4827 c-40 -20 -88 -94 -111 -168 -58 -189 33 -429 162 -429 50
0 91 21 123 63 30 39 56 108 56 148 0 30 0 30 -90 49 -30 6 -61 14 -69 16 -9
3 4 25 41 67 30 34 62 73 71 87 62 91 -79 220 -183 167z" />
        </g>
</svg>